<?xml version="1.0" encoding="utf-8"?>
<!-- Generator: Adobe Illustrator 24.1.2, SVG Export Plug-In . SVG Version: 6.00 Build 0)  -->
<svg version="1.1" id="Layer_1" xmlns="http://www.w3.org/2000/svg" xmlns:xlink="http://www.w3.org/1999/xlink" x="0px" y="0px"
	 viewBox="0 0 60 60" style="enable-background:new 0 0 60 60;" xml:space="preserve">
<style type="text/css">
	.st0{fill:#2E368F;}
</style>
<path class="st0" d="M40.5,10h-0.2l-19.7,2.1v36.2L40.3,60L60,48.3V12.1L40.5,10z M57.5,46.8L40.3,57L23.1,46.8V32l17.1,10.2V44
	l-11.7-7v1.8l11.8,7.1v1.9l-11.8-7v1.8l11.8,7l11.9-7.1v-7.6l5.3-3.2C57.5,31.7,57.5,46.8,57.5,46.8z M57.4,29.8l-4.7,2.8l-2.2,1.3
	l-10.3-6.1v1.8l8.8,5.3h-0.1L48.7,35l-1.3,0.7l-7.3-4.3v1.8l5.8,3.4l-1.4,0.9l-4.3-2.6v1.8l2.9,1.7l-2.9,1.7L23.2,30l17-10.2
	C40.2,19.8,57.4,29.8,57.4,29.8z M57.5,28L40.2,17.8L23.1,28V14.4l17.2-1.8l17.2,1.8V28z"/>
</svg>
